<?xml version="1.0" encoding="UTF-8" standalone="no"?>
<!-- Created with Inkscape (http://www.inkscape.org/) -->

<svg
   width="33.513649mm"
   height="25.400101mm"
   viewBox="0 0 33.513649 25.400101"
   version="1.1"
   id="svg1"
   xml:space="preserve"
   xmlns="http://www.w3.org/2000/svg"
   xmlns:svg="http://www.w3.org/2000/svg"><defs
     id="defs1"><style
       id="style1">.cls-1{fill:url(#linear-gradient);}.cls-2{fill:#fff;}.cls-3{fill:#ff5e5b;}</style><style
       id="style1-5">.cls-1{fill:url(#linear-gradient);}.cls-2{fill:#fff;}.cls-3{fill:#ff5e5b;}</style><style
       id="style1-7">.cls-1{fill:url(#linear-gradient);}.cls-2{fill:#fff;}.cls-3{fill:#ff5e5b;}</style></defs><g
     id="layer1"
     transform="translate(-142.55077)"><path
       d="M 170.94002,2.1272202 A 27.717108,27.717108 0 0 0 164.0259,-5e-7 a 18.99472,18.99472 0 0 0 -0.88568,1.8003654 25.748047,25.748047 0 0 0 -7.67327,0 A 19.076435,19.076435 0 0 0 154.58126,-5e-7 27.91217,27.91217 0 0 0 147.66188,2.1324904 C 143.28617,8.6064095 142.1,14.919531 142.69309,21.143026 v 0 a 27.869994,27.869994 0 0 0 8.47987,4.257074 20.481401,20.481401 0 0 0 1.81619,-2.92855 18.035231,18.035231 0 0 1 -2.86002,-1.365426 c 0.23987,-0.173967 0.47447,-0.353217 0.70116,-0.527184 a 19.919942,19.919942 0 0 0 16.95449,0 c 0.22933,0.187148 0.46393,0.366396 0.70117,0.527184 a 18.103766,18.103766 0 0 1 -2.86529,1.368065 20.296884,20.296884 0 0 0 1.81617,2.925911 27.743468,27.743468 0 0 0 8.48516,-4.254433 v 0 C 176.61788,13.928412 174.73317,7.6732855 170.94002,2.1272202 Z M 153.7404,17.315614 c -1.65275,0 -3.01818,-1.499862 -3.01818,-3.34503 0,-1.845168 1.31799,-3.358209 3.0129,-3.358209 1.69492,0 3.04981,1.513041 3.0208,3.358209 -0.029,1.845168 -1.33114,3.34503 -3.01552,3.34503 z m 11.13429,0 c -1.65539,0 -3.01554,-1.499862 -3.01554,-3.34503 0,-1.845168 1.31797,-3.358209 3.01554,-3.358209 1.69755,0 3.04189,1.513041 3.0129,3.358209 -0.029,1.845168 -1.32853,3.34503 -3.0129,3.34503 z"
       id="path1"
       style="stroke-width:0.263596" /></g></svg>
