<?xml version="1.0" encoding="UTF-8" standalone="no"?>
<!-- Created with Inkscape (http://www.inkscape.org/) -->

<svg
   width="25.830458mm"
   height="25.400099mm"
   viewBox="0 0 25.830458 25.400099"
   version="1.1"
   id="svg1"
   xml:space="preserve"
   xmlns="http://www.w3.org/2000/svg"
   xmlns:svg="http://www.w3.org/2000/svg"><defs
     id="defs1"><style
       id="style1">.cls-1{fill:url(#linear-gradient);}.cls-2{fill:#fff;}.cls-3{fill:#ff5e5b;}</style><style
       id="style1-5">.cls-1{fill:url(#linear-gradient);}.cls-2{fill:#fff;}.cls-3{fill:#ff5e5b;}</style><style
       id="style1-7">.cls-1{fill:url(#linear-gradient);}.cls-2{fill:#fff;}.cls-3{fill:#ff5e5b;}</style></defs><g
     id="layer1"
     transform="translate(-50.073798,-0.15540589)"><path
       fill-rule="evenodd"
       clip-rule="evenodd"
       d="m 62.999758,0.15540589 c -7.14772,0 -12.92596,5.82083001 -12.92596,13.02198811 0,5.75628 3.70232,10.62885 8.83841,12.3534 0.64214,0.12965 0.87736,-0.28019 0.87736,-0.62495 0,-0.30189 -0.0212,-1.33667 -0.0212,-2.41485 -3.59569,0.77629 -4.34446,-1.55231 -4.34446,-1.55231 -0.57785,-1.50918 -1.43404,-1.89706 -1.43404,-1.89706 -1.17686,-0.79772 0.0857,-0.79772 0.0857,-0.79772 1.30546,0.0863 1.99046,1.33668 1.99046,1.33668 1.15544,1.98331 3.01731,1.42292 3.76635,1.07791 0.10689,-0.84085 0.44953,-1.42293 0.81333,-1.74625 -2.86782,-0.30189 -5.88513,-1.42293 -5.88513,-6.42488 0,-1.42293 0.51329,-2.5870881 1.32662,-3.4924981 -0.12832,-0.32332 -0.57785,-1.66026 0.12859,-3.44964 0,0 1.0914,-0.34501 3.55229,1.33668 a 12.427479,12.427479 0 0 1 3.23163,-0.43127 c 1.0914,0 2.20397,0.15108 3.23135,0.43127 2.46116,-1.68169 3.55256,-1.33668 3.55256,-1.33668 0.70644,1.78938 0.25665,3.12632 0.12833,3.44964 0.83476,0.90541 1.32688,2.0695681 1.32688,3.4924981 0,5.00195 -3.01731,6.10129 -5.90656,6.42488 0.47096,0.40957 0.87736,1.1856 0.87736,2.41459 0,1.74625 -0.0212,3.14774 -0.0212,3.57875 0,0.34502 0.23548,0.75486 0.87736,0.62547 5.13609,-1.72508 8.83841,-6.59738 8.83841,-12.35366 0.0212,-7.2011581 -5.77824,-13.02198811 -12.90452,-13.02198811 z"
       fill="#24292f"
       id="path1-8"
       style="stroke-width:0.264583" /></g></svg>
